<?xml version="1.0" standalone="no"?>
<!DOCTYPE svg PUBLIC "-//W3C//DTD SVG 20010904//EN"
 "http://www.w3.org/TR/2001/REC-SVG-20010904/DTD/svg10.dtd">
<svg version="1.0" xmlns="http://www.w3.org/2000/svg"
 width="196.000000pt" height="196.000000pt" viewBox="0 0 196.000000 196.000000"
 preserveAspectRatio="xMidYMid meet">
<metadata>
Created by potrace 1.11, written by Peter Selinger 2001-2013
</metadata>
<g transform="translate(0.000000,196.000000) scale(0.100000,-0.100000)"
fill="#000000" stroke="none">
<path d="M339 1432 c-20 -52 -40 -107 -44 -122 -4 -17 -153 -457 -162 -480 -4
-8 -7 -18 -8 -22 -2 -5 -3 -9 -4 -10 0 -2 -23 -67 -49 -145 l-48 -142 65 -3
c36 -2 90 -1 120 2 l55 5 56 169 57 170 41 3 c42 3 42 3 66 -49 13 -29 26 -60
30 -68 3 -8 25 -62 49 -120 l43 -105 55 -5 c30 -3 95 -4 146 -2 106 4 103 -11
34 134 -22 48 -43 99 -47 113 -3 14 -10 25 -15 25 -5 0 -9 7 -9 15 0 8 -9 30
-20 50 -11 19 -17 35 -14 35 4 0 1 6 -5 14 -9 10 0 20 40 45 28 17 53 31 56
31 19 0 114 110 140 163 75 149 59 240 -53 297 -48 25 -53 25 -307 27 l-258 3
-10 -28z m353 -157 c75 -15 74 -110 -3 -188 -22 -22 -49 -41 -62 -43 -12 -1
-22 -3 -22 -4 0 -8 -152 -16 -160 -8 -4 4 67 227 78 245 6 10 118 9 169 -2z"/>
<path d="M1291 1442 c-4 -9 -36 -100 -71 -202 -34 -102 -80 -236 -102 -299
-22 -63 -41 -121 -43 -130 -2 -9 -20 -61 -40 -116 -20 -55 -38 -107 -40 -115
-2 -8 -8 -27 -14 -42 l-10 -26 72 -4 c40 -2 94 -1 120 2 l49 5 44 130 c25 72
47 137 49 145 2 8 12 40 23 70 l19 55 179 2 c98 0 182 1 185 2 6 1 59 157 59
172 0 4 -75 7 -167 7 -93 0 -174 1 -181 1 -9 1 -10 6 -3 19 5 9 9 20 10 25 1
20 36 123 44 128 4 3 95 6 202 5 l193 -1 12 35 c6 19 15 44 20 55 5 11 13 36
18 57 l10 36 -314 0 c-284 1 -315 -1 -323 -16z"/>
</g>
</svg>
